<svg width="224" height="21" viewBox="0 0 224 21" fill="none" xmlns="http://www.w3.org/2000/svg">
  <path d="M20.6333 11.5984C20.6446 12.1455 20.562 12.6905 20.389 13.2098C20.2416 13.643 20.0119 14.0437 19.7125 14.3902C19.4172 14.724 19.0598 14.9976 18.6602 15.1959C18.2294 15.4095 17.7754 15.573 17.3072 15.6831C16.7882 15.8053 16.2604 15.8868 15.7287 15.9267C15.1649 15.9267 14.5886 15.9267 13.9998 15.9267H2.42413V3.24155L-1.57706e-06 4.46732e-09H13.8119C14.2629 4.46732e-09 14.7202 4.46732e-09 15.1837 4.46732e-09C15.627 0.0334912 16.0669 0.102416 16.4991 0.20611C16.9029 0.304361 17.2938 0.44898 17.6642 0.637068C18.0203 0.820114 18.339 1.06796 18.6038 1.36782C18.8785 1.68706 19.089 2.05602 19.2239 2.45459C19.3832 2.93801 19.4595 3.44481 19.4494 3.95357C19.491 4.83677 19.2181 5.70621 18.6789 6.40816C18.0372 7.12545 17.1554 7.58506 16.1984 7.70103C16.8745 7.7383 17.5434 7.85786 18.1904 8.05704C18.6886 8.21056 19.1494 8.46581 19.5434 8.80653C19.8925 9.11686 20.1575 9.50998 20.3138 9.9495C20.5195 10.4753 20.6277 11.034 20.6333 11.5984ZM15.2589 4.70306C15.2891 4.51062 15.2891 4.31465 15.2589 4.12221C15.1935 3.93171 15.0764 3.76305 14.9206 3.63504C14.7259 3.48028 14.5024 3.36564 14.2629 3.29776C13.914 3.20289 13.5533 3.15872 13.1918 3.1666H6.80259V6.18331H13.1542C13.4998 6.15788 13.8408 6.08862 14.1689 5.9772C14.407 5.91498 14.6304 5.80676 14.8266 5.65866C14.9826 5.53858 15.1002 5.37581 15.1649 5.19023C15.2191 5.03307 15.2507 4.86906 15.2589 4.70306ZM16.1984 11.0175C16.2085 10.7131 16.144 10.4108 16.0105 10.1369C15.877 9.95331 15.6948 9.81055 15.4844 9.72466C15.1617 9.58886 14.8189 9.50658 14.4696 9.48107C14.0562 9.48107 13.5551 9.48107 12.9663 9.48107H6.80259V12.7226H13.0226C13.5989 12.7226 14.1 12.7226 14.526 12.7226C14.8757 12.6995 15.2188 12.6172 15.5407 12.479C15.786 12.3705 15.9901 12.1867 16.1233 11.9544C16.2277 11.6535 16.2536 11.3311 16.1984 11.0175Z" transform="translate(45.843 1.90665)" fill="white"/>
  <path d="M-2.29391e-06 15.908V4.46732e-09H16.1609V3.39145H4.43484V5.9772H15.5595V9.40612H4.43484V12.5165H16.3864V15.908H-2.29391e-06Z" transform="translate(68.2053 1.90665)" fill="white"/>
  <path d="M-2.86739e-07 15.908V4.46732e-09H16.1609V3.39145H4.43484V5.9772H15.5595V9.40612H4.43484V12.5165H16.33V15.908H-2.86739e-07Z" transform="translate(86.7714 1.90665)" fill="white"/>
  <path d="M4.37847 15.9121H0V0.00412046H10.8052C11.8257 -0.024429 12.8449 0.0955015 13.8307 0.360129C14.5533 0.553182 15.226 0.898177 15.8038 1.37194C16.3071 1.79667 16.6895 2.34594 16.9125 2.96461C17.1471 3.63265 17.2616 4.33673 17.2508 5.04445C17.2638 5.64368 17.1683 6.24033 16.9689 6.80576C16.7945 7.28055 16.5333 7.71894 16.1984 8.09863C15.8743 8.46282 15.4936 8.77281 15.0709 9.01676C14.6416 9.26699 14.1883 9.47412 13.7179 9.63509L21.6668 19.0974H16.6307L9.11397 10.0098H4.41605L4.37847 15.9121ZM12.8911 5.02572C12.9007 4.7588 12.8625 4.49231 12.7784 4.23875C12.6942 4.02233 12.5427 3.83847 12.3461 3.71411C12.1 3.5606 11.825 3.45861 11.5381 3.41431C11.1192 3.37744 10.6979 3.37744 10.2791 3.41431H4.37847V6.73081H10.2791C10.6979 6.76777 11.1192 6.76777 11.5381 6.73081C11.8252 6.68703 12.1002 6.58499 12.3461 6.43101C12.5427 6.30664 12.6942 6.12279 12.7784 5.90637C12.8743 5.62321 12.9126 5.32382 12.8911 5.02572Z" transform="translate(105.262 1.90259)" fill="white"/>
  <path d="M-1.14695e-06 13.2098V4.46732e-09H15.2589V3.39145H4.3033V6.16457H14.7703V9.55602H4.3033V18.0628L-1.14695e-06 13.2098Z" transform="translate(124.317 1.90665)" fill="white"/>
  <path d="M21.7247 8.3715C21.7531 9.62427 21.4961 10.8672 20.973 12.0065C20.4772 13.0431 19.7354 13.9435 18.812 14.6298C17.7908 15.3726 16.6361 15.9133 15.4107 16.2224C13.9378 16.6003 12.4214 16.783 10.9007 16.7658C9.37999 16.7815 7.86378 16.5989 6.39064 16.2224C5.15295 15.9151 3.98567 15.3745 2.95177 14.6298C2.02298 13.9441 1.27495 13.0439 0.771926 12.0065C0.241342 10.8756 -0.0222186 9.63853 0.00147387 8.39023C-0.0222186 7.14193 0.241342 5.90483 0.771926 4.77394C1.27495 3.73653 2.02298 2.83636 2.95177 2.15071C3.98445 1.39971 5.15173 0.852734 6.39064 0.539306C9.35407 -0.179769 12.4472 -0.179769 15.4107 0.539306C16.6361 0.848452 17.7908 1.38911 18.812 2.13198C19.7354 2.81823 20.4772 3.71864 20.973 4.7552C21.4934 5.88885 21.7503 7.12502 21.7247 8.3715ZM17.365 8.3715C17.3645 7.76714 17.2694 7.16657 17.0831 6.59145C16.8822 5.98503 16.5336 5.43779 16.0684 4.99878C15.5014 4.47992 14.8282 4.08995 14.0953 3.85581C13.0617 3.5368 11.9821 3.39116 10.9007 3.42485C10.1315 3.41655 9.36337 3.4856 8.60806 3.63096C8.01602 3.74364 7.4412 3.93259 6.89803 4.19308C6.45508 4.40919 6.04918 4.69376 5.69536 5.03626C5.38699 5.33829 5.12712 5.68588 4.92489 6.06681C4.73341 6.42632 4.59421 6.81117 4.51147 7.20978C4.43411 7.59848 4.39634 7.99397 4.39873 8.39023C4.39597 8.79272 4.43374 9.19446 4.51147 9.58942C4.59396 9.98811 4.73317 10.373 4.92489 10.7324C5.12582 11.1141 5.38584 11.4619 5.69536 11.7629C6.05014 12.0993 6.45604 12.3775 6.89803 12.5874C7.44189 12.8461 8.01649 13.035 8.60806 13.1495C9.36335 13.295 10.1314 13.364 10.9007 13.3556C11.9821 13.3893 13.0617 13.2437 14.0953 12.9247C14.8282 12.6905 15.5014 12.3005 16.0684 11.7817C16.5415 11.3269 16.8907 10.7594 17.0831 10.1328C17.2738 9.56468 17.3753 8.97055 17.3838 8.3715H17.365Z" transform="translate(140.796 1.4985)" fill="white"/>
  <path d="M4.3033 15.9104H2.86739e-06V0.00242H10.8052C11.8006 -0.0189186 12.794 0.10095 13.7555 0.358429C14.4781 0.551481 15.1509 0.896477 15.7286 1.37024C16.2319 1.79497 16.6143 2.34424 16.8374 2.96291C17.072 3.63095 17.1865 4.33503 17.1756 5.04275C17.1886 5.64198 17.0931 6.23863 16.8937 6.80406C16.7194 7.27885 16.4581 7.71724 16.1233 8.09693C15.7991 8.46112 15.4184 8.7711 14.9958 9.01506C14.5664 9.26529 14.1132 9.47242 13.6428 9.63339L18.8857 15.9104H13.8495L9.02001 10.0456H4.32208L4.3033 15.9104ZM12.8159 5.02402C12.8255 4.7571 12.7874 4.49061 12.7032 4.23705C12.619 4.02063 12.4675 3.83677 12.271 3.7124C12.0248 3.5589 11.7499 3.45691 11.4629 3.41261C11.0441 3.37574 10.6228 3.37574 10.2039 3.41261H4.3033V6.72911H10.2039C10.6228 6.76607 11.0441 6.76607 11.4629 6.72911C11.75 6.68532 12.025 6.58329 12.271 6.42931C12.4675 6.30494 12.619 6.12109 12.7032 5.90467C12.8055 5.6228 12.8502 5.32337 12.8347 5.02402H12.8159Z" transform="translate(164.268 1.90427)" fill="white"/>
  <path d="M11.4265 0.000671858C12.8891 -0.0106503 14.3494 0.121142 15.7862 0.394155C17.0649 0.635647 18.3218 0.980297 19.5445 1.42471V5.32206C18.5002 4.74671 17.3896 4.29999 16.2372 3.99172C15.5513 3.806 14.8547 3.66208 14.1513 3.56076C13.3734 3.44812 12.5884 3.39176 11.8024 3.39212C10.9078 3.38313 10.0143 3.45841 9.13393 3.61697C8.48677 3.74514 7.85632 3.9463 7.25476 4.21656C6.76582 4.42931 6.31512 4.72047 5.92055 5.07848C5.59059 5.38204 5.31144 5.73628 5.09371 6.12777C4.89875 6.48573 4.75935 6.8711 4.68029 7.27074C4.60494 7.64076 4.56717 8.01741 4.56755 8.39498C4.56865 8.74057 4.60008 9.08541 4.6615 9.42553C4.73428 9.80975 4.8608 10.1819 5.03734 10.531C5.23132 10.9235 5.48484 11.2837 5.789 11.5991C6.16014 11.9696 6.59237 12.2738 7.06683 12.4985C7.66392 12.7886 8.29528 13.0027 8.946 13.1355C9.81195 13.3085 10.6938 13.3901 11.5768 13.3791H12.9111L13.9446 13.2479L14.8278 13.0418L15.6734 12.7982V10.9245H10.7876V7.32696H19.9204V15.4589C19.3034 15.6659 18.6762 15.841 18.0412 15.9836C17.3271 16.146 16.5942 16.2834 15.8426 16.3958C15.0909 16.5082 14.333 16.5957 13.5688 16.6581C12.8046 16.6581 12.0905 16.6581 11.4265 16.6581C10.4206 16.6615 9.41579 16.5927 8.41984 16.452C7.50575 16.3257 6.60591 16.1124 5.73262 15.815C4.87173 15.5849 4.0443 15.2448 3.27092 14.8031C2.60461 14.3715 2.01417 13.8334 1.52329 13.2105C1.02859 12.5743 0.64721 11.8581 0.395788 11.0932C0.119278 10.2208 -0.0139814 9.3097 0.00116392 8.39498C-0.0116502 7.48511 0.128081 6.5795 0.414584 5.71555C0.675501 4.94143 1.06976 4.21859 1.57966 3.5795C2.11383 2.94906 2.74877 2.41093 3.45883 1.98683C4.17701 1.48907 4.95316 1.0801 5.77022 0.768901C6.65256 0.497385 7.55854 0.309184 8.47621 0.206782C9.45337 0.0672177 10.4394 -0.00166564 11.4265 0.000671858Z" transform="translate(182.796 1.49377)" fill="white"/>
  <path d="M0 15.908V4.46732e-09H18.7917L16.0857 3.39145H4.35967V5.9772H15.4844V9.40612H4.35967V12.5165H16.2548V15.908H0Z" transform="translate(204.858 1.90665)" fill="white"/>
  <path d="M38.8659 1.67219L18.1107 0.0104386C17.32 -0.0528697 16.5333 0.173348 15.8984 0.646556C15.2867 1.10257 14.5331 1.32976 13.7698 1.28829L0 0.540195C0.360308 5.46843 8.3046 8.02815 18.8255 11.3969C19.1436 11.4988 19.2515 11.894 19.0271 12.1403L13.5737 18.1262C13.2996 18.4272 13.5261 18.9079 13.934 18.8908L33.3446 18.0761C33.9781 18.0495 34.396 17.4088 34.1628 16.8222C33.7869 15.8765 33.2531 14.5262 32.8011 13.3538C31.5605 10.1364 31.1069 8.55793 39.2163 2.85726C39.7262 2.49882 39.49 1.69037 38.8659 1.67219Z" fill="#F4D03F"/>
  <path d="M0.763326 7.6269C8.81263 4.27767 17.2692 1.70407 26.0385 0C26.0551 0.212331 25.9714 0.434258 25.7628 0.580883C17.6534 6.28156 18.107 7.86005 19.3476 11.0774C19.7996 12.2498 20.3334 13.6001 20.7093 14.5459C20.9424 15.1324 20.5246 15.7731 19.891 15.7997L0.480493 16.6144C0.0725414 16.6315 -0.153976 16.1508 0.120208 15.8499L5.57357 9.86397C5.79799 9.61762 5.69008 9.22244 5.37196 9.12057C3.77012 8.60766 2.22803 8.11351 0.763326 7.6269Z" transform="translate(13.4536 2.27637)" fill="url(#paint0_linear)"/>
  <defs>
    <linearGradient id="paint0_linear" x2="1" gradientUnits="userSpaceOnUse" gradientTransform="translate(20.4695 3.75537) scale(17.7178 10.617) rotate(90)">
      <stop stop-color="#D7A034"/>
      <stop offset="1" stop-color="#F4D03F"/>
    </linearGradient>
  </defs>
</svg>
